PathFileType	4	(X/Y/Z)	 s09c0402.trc
DataRate	CameraRate	NumFrames	NumMarkers	Units	OrigDataRate	OrigDataStartFrame	OrigNumFrames
200	200	4	50	mm	200	1	2000
Frame#	Time	racr			lacr			c7			jug			rlel			rdr			llel			ldr			s2			lic			ric			lasi			rasi			rpsi			lpsi			rgt			lgt			rth1			rth2			rth3			rth4			rlfc			rmfc			rsh1			rsh2			rsh3			rsh4			rlmal			rmmal			rcal			rtoe			rmt5			lth1			lth2			lth4			lth3			llfc			lmfc			llmal			lmmal			lcal			lmt5			lsh1			lsh2			lsh3			lsh4			ltoe			SBIKE			LBIKE			RBIKE			
		X1	Y1	Z1	X2	Y2	Z2	X3	Y3	Z3	X4	Y4	Z4	X5	Y5	Z5	X6	Y6	Z6	X7	Y7	Z7	X8	Y8	Z8	X9	Y9	Z9	X10	Y10	Z10	X11	Y11	Z11	X12	Y12	Z12	X13	Y13	Z13	X14	Y14	Z14	X15	Y15	Z15	X16	Y16	Z16	X17	Y17	Z17	X18	Y18	Z18	X19	Y19	Z19	X20	Y20	Z20	X21	Y21	Z21	X22	Y22	Z22	X23	Y23	Z23	X24	Y24	Z24	X25	Y25	Z25	X26	Y26	Z26	X27	Y27	Z27	X28	Y28	Z28	X29	Y29	Z29	X30	Y30	Z30	X31	Y31	Z31	X32	Y32	Z32	X33	Y33	Z33	X34	Y34	Z34	X35	Y35	Z35	X36	Y36	Z36	X37	Y37	Z37	X38	Y38	Z38	X39	Y39	Z39	X40	Y40	Z40	X41	Y41	Z41	X42	Y42	Z42	X43	Y43	Z43	X44	Y44	Z44	X45	Y45	Z45	X46	Y46	Z46	X47	Y47	Z47	X48	Y48	Z48	X49	Y49	Z49	X50	Y50	Z50	
1	0.0050	522.838844	1317.078132	-101.092317	527.349295	1283.858652	-417.761771	501.659454	1325.390061	-252.650930	487.556465	1190.994190	-251.057843	506.418447	1077.379939	15.354189	690.583119	911.464617	-35.700111	451.426480	1023.562210	-516.454429	670.361263	910.608055	-460.908967	24.912100	1129.540470	-235.640618	158.261109	1125.613336	-383.337446	177.763300	1122.238588	-93.962815	199.687235	1065.798655	-364.504817	218.560887	1065.200452	-115.061474	58.700443	1157.870068	-176.675915	50.374663	1167.038396	-286.777353	148.938712	977.184016	-52.525672	119.633255	1001.572541	-430.223616	238.420312	869.474185	-68.710294	307.349400	818.814023	-81.977367	336.724751	734.047192	-94.264288	329.737347	835.640037	-106.844177	367.015240	635.709657	-130.836634	337.269323	623.997068	-226.460148	278.068664	586.798763	-92.006567	223.252558	517.226339	-99.452748	139.832970	486.013757	-90.920912	235.675991	498.880416	-131.992402	57.894961	425.734821	-84.047091	60.522173	433.257787	-163.987560	-35.128517	418.722929	-117.970597	212.089877	325.809403	-127.499377	131.164678	336.205290	-60.019731	228.552739	916.208378	-426.731118	310.202663	890.939987	-418.578436	329.330061	920.182111	-403.133871	370.880652	824.097457	-413.899253	442.707412	747.682926	-392.951561	457.526271	734.191541	-294.943818	354.858050	391.228166	-409.233287	369.457453	401.894214	-335.065954	284.323068	350.262562	-373.992926	454.638501	313.040165	-433.760364	418.877665	650.119609	-418.260023	420.939926	563.621486	-411.080432	378.020162	485.702343	-412.585985	444.804923	559.748485	-379.853154	543.951923	333.710356	-363.766768	-65.112882	852.833242	-238.950855	20.753627	84.579643	-441.965669	21.254860	83.780080	-43.672961	
2	0.0100	522.836142	1317.067346	-101.076345	527.362231	1283.846887	-417.723695	501.725364	1325.364414	-252.586151	487.537347	1190.974740	-251.027117	506.433279	1077.356360	15.360113	690.594811	911.455363	-35.673024	451.425537	1023.576987	-516.421931	670.364173	910.613603	-460.880846	23.892174	1130.197532	-235.192690	158.216897	1125.626084	-383.288164	177.757496	1122.241482	-93.947714	199.661576	1065.836914	-364.504811	218.565835	1065.233524	-115.040162	58.686289	1157.883725	-176.660969	50.370499	1166.968358	-286.774935	148.942965	977.183182	-52.527524	119.633386	1001.590001	-430.232854	238.447129	869.477488	-68.729120	307.368189	818.799199	-81.981597	336.728520	734.044170	-94.264918	329.781975	835.647880	-106.849982	367.002975	635.700417	-130.834453	337.262424	623.969474	-226.469960	278.065956	586.795568	-92.018646	223.263086	517.208265	-99.463591	139.818213	486.008580	-90.935269	235.664194	498.881027	-131.987081	58.122060	425.526491	-83.965993	60.551000	433.248675	-163.991420	-35.135165	418.749520	-117.954040	212.102707	325.820019	-127.487182	131.161949	336.225013	-60.015979	228.555401	916.211608	-426.748352	310.195613	890.927434	-418.577695	329.341703	920.176560	-403.134863	370.882811	824.101970	-413.905380	442.674330	747.652838	-392.940664	457.493934	734.147019	-294.919890	354.836844	391.199828	-409.238244	369.438728	401.899867	-335.026609	284.300330	350.234052	-374.000423	454.640396	313.042097	-433.751386	418.849561	650.099851	-418.251246	420.915015	563.607810	-411.081457	377.988807	485.670223	-412.591689	444.776008	559.712785	-379.850637	543.935077	333.718089	-363.789870	-65.104356	852.816191	-238.947204	20.768102	84.460047	-442.054021	21.254649	83.763558	-43.680063	
3	0.0150	522.836360	1317.048618	-101.056172	527.381133	1283.859599	-417.668470	501.747113	1325.329988	-252.476288	487.498361	1190.966646	-250.980691	506.428548	1077.334054	15.375262	690.604186	911.455917	-35.657167	451.437427	1023.600716	-516.395213	670.362417	910.601866	-460.845286	23.876198	1130.219419	-235.186907	158.230909	1125.666900	-383.317590	177.751925	1122.252108	-93.922262	199.650446	1065.867386	-364.475222	218.560798	1065.235369	-115.053019	58.711257	1157.861048	-176.670824	50.396939	1166.973576	-286.763664	148.960208	977.193625	-52.526457	119.646420	1001.589765	-430.223075	238.450057	869.482544	-68.712635	307.372325	818.796119	-81.975635	336.737302	734.017905	-94.266235	329.772065	835.663800	-106.856866	367.014170	635.683266	-130.838641	337.252636	623.963036	-226.485671	278.068112	586.786237	-92.025241	223.214589	517.162342	-99.438488	139.816466	486.007948	-90.931025	235.674958	498.901440	-131.979457	58.125448	425.520852	-83.966552	60.518693	433.279095	-163.992211	-35.152833	418.742516	-117.976135	212.088813	325.839910	-127.475591	131.157619	336.251000	-60.022140	228.566396	916.210001	-426.725270	310.194037	890.914127	-418.564239	329.351202	920.167873	-403.101014	370.865962	824.068097	-413.882247	442.651302	747.622487	-392.920042	457.468874	734.113630	-294.878756	354.820659	391.177650	-409.234936	369.436363	401.871403	-335.014290	284.294380	350.203886	-374.007492	454.628326	313.012622	-433.752385	418.847128	650.075133	-418.226637	420.911708	563.572403	-411.071389	377.973746	485.643330	-412.577833	444.766534	559.666600	-379.820727	543.936591	333.713195	-363.792266	-65.115909	852.832678	-238.957270	20.746477	84.474035	-442.062083	21.260150	83.772093	-43.671050	
4	0.0200	522.825445	1317.024544	-101.037558	526.681304	1283.052718	-417.143246	501.747113	1325.329988	-252.476288	487.478868	1190.962599	-250.957479	506.764771	1077.061279	15.577117	690.454683	911.827683	-35.367053	451.659950	1023.466391	-516.379852	670.379820	910.607822	-460.803632	24.964536	1129.566083	-235.640378	158.186538	1125.687436	-383.266335	177.128916	1122.205344	-94.970361	199.639048	1065.898321	-364.454719	218.549047	1065.240592	-115.049311	59.136531	1157.718726	-176.391712	51.057284	1166.835068	-286.432280	148.952186	977.203808	-52.527789	119.647523	1001.599554	-430.216475	238.644579	869.575150	-68.738708	307.231598	818.072109	-82.784866	336.730761	734.028737	-94.264069	329.475167	836.272407	-106.588382	366.991291	635.668120	-130.849456	337.249887	623.953023	-226.490803	278.059993	586.773243	-92.022737	221.563577	516.991599	-99.438348	139.373728	486.612823	-90.567104	235.652066	499.376860	-131.395345	57.970292	425.311547	-83.837147	57.265428	435.851234	-162.716490	-35.158475	418.727972	-117.956105	212.090840	325.862004	-127.485226	131.156291	336.252272	-60.033705	228.649166	916.040888	-426.749036	310.204737	890.897124	-418.527253	329.318475	920.069636	-402.997223	370.862569	824.038587	-413.851770	442.638404	747.591456	-392.906806	457.435716	734.089816	-294.874439	354.550209	391.695756	-409.462466	369.429875	401.824329	-335.011746	284.284651	350.188894	-374.012698	454.626490	312.995930	-433.755863	418.822613	650.051718	-418.212447	421.230732	563.157825	-410.995811	377.966401	485.619905	-412.578708	444.788228	559.512094	-379.696148	543.918794	333.693160	-363.802814	-65.120320	852.825701	-238.955979	20.761908	84.598390	-441.971859	21.244881	83.768262	-43.677814	
